Coordinates
version=1
nRows=12
nColumns=34
inDegrees=yes

Units are S.I. units (second, meters, Newtons, ...)
If the header above contains a line with 'inDegrees', this indicates whether rotational values are in degrees (yes) or radians (no).

endheader
time	pelvis_tilt	pelvis_list	pelvis_rotation	pelvis_tx	pelvis_ty	pelvis_tz	hip_flexion_r	hip_adduction_r	hip_rotation_r	knee_angle_r	ankle_angle_r	subtalar_angle_r	mtp_angle_r	hip_flexion_l	hip_adduction_l	hip_rotation_l	knee_angle_l	ankle_angle_l	subtalar_angle_l	mtp_angle_l	lumbar_extension	lumbar_bending	lumbar_rotation	arm_flex_r	arm_add_r	arm_rot_r	elbow_flex_r	pro_sup_r	arm_flex_l	arm_add_l	arm_rot_l	elbow_flex_l	pro_sup_l
     45.00000000	     90.00000018	    -28.12502841	    190.35641578	      0.14917456	      0.72869203	     -0.27670213	     62.17193685	     -4.23267935	     -2.80015583	     46.19014253	     -1.20550019	    -33.10287733	      0.00000000	     62.79590634	     -3.26843322	      5.23895915	     44.68689213	    -11.97063279	    -21.66455069	      0.00000000	    -22.58873814	     13.31102545	     -3.19633200	   -105.82871461	   -193.57014979	    370.77533684	     52.38098558	      0.00000000	    523.08906065	    355.96296786	    465.06028450	     60.43074805	     87.48075555
     45.01666670	     90.00000018	    -28.04074006	    190.55189302	      0.15578704	      0.73314388	     -0.27219650	     63.34726077	     -4.49098530	     -2.81947238	     47.25257151	     -0.61713841	    -33.29930841	      0.00000000	     63.87480119	     -2.89707796	      5.69217344	     45.63232023	    -12.07820240	    -22.42048743	      0.00000000	    -21.80755616	     13.77831327	     -7.87271142	   -105.37253498	   -196.71460126	    366.79344325	     46.84895438	      0.00000000	    522.96635003	    356.21867945	    459.21295497	     47.16890357	     89.24904521
     45.03333330	     90.00000018	    -28.16883924	    190.55555957	      0.16274545	      0.73757879	     -0.26803176	     64.63822655	     -4.72310029	     -2.63380550	     48.42297291	     -0.19158606	    -33.65628762	      0.00000000	     64.87950878	     -2.70889836	      5.56304585	     46.60816947	    -11.66112499	    -22.79901954	      0.00000000	    -20.41091971	     13.95539816	    -13.10078230	   -105.64529656	   -198.22883103	    356.70396710	     39.84731251	      0.00000000	    523.35650281	    354.77523981	    452.58591803	     36.67205567	     96.07848408
     45.05000000	     90.00000018	    -28.11584652	    190.57932623	      0.16974505	      0.74253071	     -0.26318795	     65.96457778	     -4.87765734	     -2.58726395	     49.48765398	      0.12100738	    -33.62515468	      0.00000000	     66.01139885	     -2.42566172	      5.94153326	     47.66011533	    -11.42830258	    -23.59401477	      0.00000000	    -18.18435926	     14.02990061	    -18.48149493	   -110.07234159	   -200.83976437	    352.11267198	     26.87252069	      0.00000000	    525.10250254	    353.29663915	    451.12136170	     26.57604435	     99.69113413
     45.06666670	     90.00000018	    -27.86808420	    190.64544087	      0.17640528	      0.74703451	     -0.25772218	     67.24628743	     -5.07295005	     -2.84852830	     50.54302414	      0.57028174	    -33.78324983	      0.00000000	     67.18173612	     -2.18568919	      6.36586732	     48.69413524	    -11.25252030	    -24.53229475	      0.00000000	    -16.06637795	     14.28845396	    -21.63433346	   -122.40616498	   -203.05573049	    349.39591418	      0.00000000	      0.00000000	    527.44601186	    352.22856735	    451.12939754	     20.08369794	    101.19984168
     45.08333330	     90.00000018	    -27.52152470	    190.71441197	      0.18096620	      0.75077671	     -0.25265896	     68.15218980	     -5.29398419	     -3.32923651	     51.18932680	      1.49315111	    -33.41527978	      0.00000000	     68.05287458	     -1.94695050	      6.89103286	     49.35944812	    -11.14621500	    -25.44519345	      0.00000000	    -13.31366934	     15.46663874	    -24.65420342	   -128.51240270	   -203.93105235	    332.06403882	      0.00000000	      0.00000000	    531.82130419	    349.87331270	    462.95015236	     14.03834851	    103.00660260
     45.10000000	     90.00000018	    -26.98193697	    190.79354784	      0.18124330	      0.75333280	     -0.24966275	     68.23710300	     -5.42581173	     -4.18783953	     50.86589511	      2.02804781	    -32.83723140	      0.00000000	     68.37952099	     -1.76989482	      7.62612132	     49.48703484	    -10.98648148	    -26.61648687	      0.00000000	     -8.72128448	     16.99597183	    -28.87581609	   -136.37459366	   -197.26306756	    292.75172351	      0.00000000	      0.00000000	    537.09567202	    347.80864816	    484.06382772	     10.20012944	    104.48264753
     45.11666670	     90.00000018	    -26.75668549	    190.75907979	      0.18181345	      0.75729505	     -0.24666088	     68.37232302	     -5.56552878	     -4.62448238	     50.41001807	      1.87896332	    -32.94905718	      0.00000000	     68.56850791	     -1.60881391	      7.84963206	     49.30349045	    -10.88103341	    -27.30834428	      0.00000000	     -4.27651686	     17.47334153	    -25.37138102	   -139.74825907	   -188.53926782	    258.76166514	      0.00000000	      1.00205027	    545.30550260	    353.38101224	    572.95779513	     16.25979540	      0.00000000
     45.13333330	     90.00000018	    -27.49486454	    190.51148046	      0.18891126	      0.76288752	     -0.24404813	     69.60258284	     -5.74633212	     -3.83677288	     51.19048241	      1.84661157	    -33.28536252	      0.00000000	     69.17975020	     -1.32266887	      7.29196593	     49.69024479	    -10.91673986	    -27.94941385	      0.00000000	     -2.29749090	     19.71632278	    -16.44978984	   -136.14958554	   -187.91207585	    244.38652090	      0.00000000	      0.00000000	    549.10703974	    359.40052570	    572.95779513	     20.48097444	      0.00000000
     45.15000000	     90.00000018	    -29.20646810	    190.07215374	      0.19921718	      0.76839635	     -0.24230372	     71.43648427	     -6.01591799	     -1.97412520	     52.76853339	      2.07335806	    -33.46368649	      0.00000000	     69.75991116	     -0.99761274	      5.60719544	     50.27752045	    -11.02153375	    -28.46979318	      0.00000000	     -6.92571113	     20.56451683	     10.43424821	   -129.40649952	   -185.53179072	    218.77914458	      0.00000000	      0.00000000	    555.67401029	    365.17608362	    560.36131670	     22.72872257	      0.00000000
     45.16666670	     90.00000018	    -29.12758500	    189.70721412	      0.23413924	      0.77691647	     -0.21701778	     77.95611046	     -6.44302928	     -1.14647331	     59.62069691	      3.03058098	    -33.54451622	      0.00000000	     76.31532097	     -0.19290547	      6.50364467	     57.81279263	    -10.44352839	    -30.87334587	      0.00000000	    -11.71443038	      6.58034476	     74.01132844	   -162.13553019	   -190.28280713	     64.32186113	     97.44242409	      0.00000000	    572.95779513	    351.21429438	    460.61930818	     52.08656248	      0.00000000
     45.18333330	     89.54726204	    -31.48159831	    188.96707981	      0.24794618	      0.78510540	     -0.21306681	     80.06446699	     -6.57795724	      1.40672616	     61.36988266	      2.61014468	    -33.59303034	      0.00000000	     76.87698545	      0.22081564	      4.39986179	     58.45610036	    -11.08296031	    -31.49103507	      0.00000000	    -17.78452546	     -3.06607606	     87.91741070	   -164.67703794	   -193.90695529	     57.31389440	     68.23800553	      0.00000000	    514.83089603	    542.25769582	    256.01456407	    100.38684911	      3.78432811
